REM DIRINDEX 1\2\6,1\2\7,1\2\8,1\2\9,1\3\10,1\3\11,1\4\12,1\4\13,1\4\14,1\5\15,1\5\16,1\5\17
REM DIRNAME cjc020,folder01,folder02,folder03,folder04,folder05,folder06,folder07,folder08,folder09,folder10,folder11,folder12,folder13,folder14,folder15,folder16
TITLE ""
FILE "1900_3_046 sec08_0749_0764.mp3" MP3
  TRACK 01 AUDIO
    TITLE "0:"
    INDEX 01 00:00:00
  TRACK 02 AUDIO
    TITLE "17:cjc020_7471"
    INDEX 01 00:00:15
  TRACK 03 AUDIO
    TITLE "0:"
    INDEX 01 00:01:26
  TRACK 04 AUDIO
    TITLE "16:cjc020_7472"
    INDEX 01 00:01:32
  TRACK 05 AUDIO
    TITLE "0:"
    INDEX 01 00:02:59
  TRACK 06 AUDIO
    TITLE "17:cjc020_7473"
    INDEX 01 00:03:45
  TRACK 07 AUDIO
    TITLE "0:"
    INDEX 01 00:06:02
  TRACK 08 AUDIO
    TITLE "16:cjc020_7474"
    INDEX 01 00:06:10
  TRACK 09 AUDIO
    TITLE "0:"
    INDEX 01 00:07:35
  TRACK 10 AUDIO
    TITLE "17:cjc020_7475"
    INDEX 01 00:08:17
  TRACK 11 AUDIO
    TITLE "0:"
    INDEX 01 00:09:24
  TRACK 12 AUDIO
    TITLE "16:cjc020_7476"
    INDEX 01 00:09:26
  TRACK 13 AUDIO
    TITLE "0:"
    INDEX 01 00:10:43
  TRACK 14 AUDIO
    TITLE "17:cjc020_7477"
    INDEX 01 00:11:25
  TRACK 15 AUDIO
    TITLE "0:"
    INDEX 01 00:12:38
  TRACK 16 AUDIO
    TITLE "16:cjc020_7478"
    INDEX 01 00:12:44
  TRACK 17 AUDIO
    TITLE "0:"
    INDEX 01 00:13:49
  TRACK 18 AUDIO
    TITLE "17:cjc020_7479"
    INDEX 01 00:14:35
  TRACK 19 AUDIO
    TITLE "0:"
    INDEX 01 00:15:62
  TRACK 20 AUDIO
    TITLE "16:cjc020_7480"
    INDEX 01 00:15:68
  TRACK 21 AUDIO
    TITLE "0:"
    INDEX 01 00:17:20
  TRACK 22 AUDIO
    TITLE "17:cjc020_7481"
    INDEX 01 00:18:07
  TRACK 23 AUDIO
    TITLE "0:"
    INDEX 01 00:19:05
  TRACK 24 AUDIO
    TITLE "16:cjc020_7482"
    INDEX 01 00:19:15
  TRACK 25 AUDIO
    TITLE "0:"
    INDEX 01 00:20:22
  TRACK 26 AUDIO
    TITLE "17:cjc020_7483"
    INDEX 01 00:21:02
  TRACK 27 AUDIO
    TITLE "0:"
    INDEX 01 00:22:38
  TRACK 28 AUDIO
    TITLE "16:cjc020_7484"
    INDEX 01 00:22:42
  TRACK 29 AUDIO
    TITLE "0:"
    INDEX 01 00:23:71
  TRACK 30 AUDIO
    TITLE "17:cjc020_7485"
    INDEX 01 00:24:57
  TRACK 31 AUDIO
    TITLE "0:"
    INDEX 01 00:25:46
  TRACK 32 AUDIO
    TITLE "16:cjc020_7486"
    INDEX 01 00:25:50
  TRACK 33 AUDIO
    TITLE "0:"
    INDEX 01 00:27:10
  TRACK 34 AUDIO
    TITLE "17:cjc020_7487"
    INDEX 01 00:27:71
  TRACK 35 AUDIO
    TITLE "0:"
    INDEX 01 00:29:68
  TRACK 36 AUDIO
    TITLE "16:cjc020_7488"
    INDEX 01 00:29:74
  TRACK 37 AUDIO
    TITLE "0:"
    INDEX 01 00:31:45
  TRACK 38 AUDIO
    TITLE "17:cjc020_7489"
    INDEX 01 00:32:27
  TRACK 39 AUDIO
    TITLE "0:"
    INDEX 01 00:34:26
  TRACK 40 AUDIO
    TITLE "16:cjc020_7490"
    INDEX 01 00:34:36
  TRACK 41 AUDIO
    TITLE "0:"
    INDEX 01 00:35:53
  TRACK 42 AUDIO
    TITLE "17:cjc020_7491"
    INDEX 01 00:36:40
  TRACK 43 AUDIO
    TITLE "0:"
    INDEX 01 00:37:26
  TRACK 44 AUDIO
    TITLE "16:cjc020_7492"
    INDEX 01 00:37:32
  TRACK 45 AUDIO
    TITLE "0:"
    INDEX 01 00:38:41
  TRACK 46 AUDIO
    TITLE "17:cjc020_7493"
    INDEX 01 00:39:25
  TRACK 47 AUDIO
    TITLE "0:"
    INDEX 01 00:40:34
  TRACK 48 AUDIO
    TITLE "16:cjc020_7494"
    INDEX 01 00:40:36
  TRACK 49 AUDIO
    TITLE "0:"
    INDEX 01 00:41:47
  TRACK 50 AUDIO
    TITLE "17:cjc020_7495"
    INDEX 01 00:42:29
  TRACK 51 AUDIO
    TITLE "0:"
    INDEX 01 00:43:23
  TRACK 52 AUDIO
    TITLE "16:cjc020_7496"
    INDEX 01 00:43:27
  TRACK 53 AUDIO
    TITLE "0:"
    INDEX 01 00:44:28
  TRACK 54 AUDIO
    TITLE "17:cjc020_7497"
    INDEX 01 00:45:16
  TRACK 55 AUDIO
    TITLE "0:"
    INDEX 01 00:46:31
  TRACK 56 AUDIO
    TITLE "16:cjc020_7498"
    INDEX 01 00:46:33
  TRACK 57 AUDIO
    TITLE "0:"
    INDEX 01 00:47:27
  TRACK 58 AUDIO
    TITLE "17:cjc020_7499"
    INDEX 01 00:48:12
  TRACK 59 AUDIO
    TITLE "0:"
    INDEX 01 00:49:10
  TRACK 60 AUDIO
    TITLE "16:cjc020_7500"
    INDEX 01 00:49:20
  TRACK 61 AUDIO
    TITLE "0:"
    INDEX 01 00:50:39
  TRACK 62 AUDIO
    TITLE "17:cjc020_7501"
    INDEX 01 00:51:16
  TRACK 63 AUDIO
    TITLE "0:"
    INDEX 01 00:53:47
  TRACK 64 AUDIO
    TITLE "16:cjc020_7502"
    INDEX 01 00:53:55
  TRACK 65 AUDIO
    TITLE "0:"
    INDEX 01 00:55:18
